<svg width="376" height="27" viewBox="0 0 376 27" fill="none" xmlns="http://www.w3.org/2000/svg">
<circle cx="190.09" cy="13.8049" r="9.34197" fill="#E1E1E1"/>
<circle cx="366.375" cy="13.8049" r="9.34197" fill="#E1E1E1"/>
<line x1="23.0947" y1="13.9465" x2="181.528" y2="13.9465" stroke="#E1E1E1" stroke-width="1.11573"/>
<line x1="199.715" y1="13.9465" x2="357.033" y2="13.9465" stroke="#E1E1E1" stroke-width="1.11573"/>
<path fill-rule="evenodd" clip-rule="evenodd" d="M13.3887 23.4303C18.9345 23.4303 23.4303 18.9345 23.4303 13.3887C23.4303 7.84292 18.9345 3.34717 13.3887 3.34717C7.84292 3.34717 3.34717 7.84292 3.34717 13.3887C3.34717 18.9345 7.84292 23.4303 13.3887 23.4303ZM13.1301 17.4502L18.7088 10.7558L16.9945 9.32727L12.198 15.0831L9.71475 12.5998L8.13688 14.1777L11.4841 17.5248L12.348 18.3888L13.1301 17.4502Z" fill="#168FFF"/>
</svg>
