<svg width="14" height="14" viewBox="0 0 14 14" fill="none" xmlns="http://www.w3.org/2000/svg">
<g clip-path="url(#clip0_199_366)">
<path d="M12.2864 7.98926C12.6091 7.98926 12.8648 8.26836 12.7955 8.58357C12.5617 9.64688 11.9758 10.583 11.0221 11.4838C9.95315 12.4235 8.48209 13.0002 6.97036 13.0002C5.45862 13.0002 4.31076 12.6872 3.2418 11.7475C2.31671 10.9342 1.4045 9.70922 1.17572 8.53283C1.11802 8.23615 1.36611 7.98926 1.66835 7.98926H7.0328H12.2864Z" fill="white"/>
<circle cx="6.93424" cy="4.82389" r="2.63736" fill="white"/>
<rect x="4.55933" y="7.98926" width="4.87912" height="5.01099" fill="#FBFBFB"/>
<path d="M7.03388 10.7959C7.03388 10.7959 6.5264 9.60008 5.96456 9.01482C5.39006 8.41637 4.18348 7.85712 4.18348 7.85712L10.061 7.85712C10.061 7.85712 8.72497 8.38117 8.10185 9.01482C7.53321 9.59308 7.03388 10.7959 7.03388 10.7959Z" fill="#168FFF"/>
</g>
<rect x="0.694915" y="0.694915" width="12.6102" height="12.6102" rx="6.30508" stroke="white" stroke-width="0.61017"/>
<defs>
<clipPath id="clip0_199_366">
<rect x="1" y="1" width="12" height="12" rx="6" fill="white"/>
</clipPath>
</defs>
</svg>
